<?xml version="1.0" standalone="no"?>
<!DOCTYPE svg PUBLIC "-//W3C//DTD SVG 20010904//EN"
 "http://www.w3.org/TR/2001/REC-SVG-20010904/DTD/svg10.dtd">
<svg version="1.0" xmlns="http://www.w3.org/2000/svg"
 width="143.000000pt" height="143.000000pt" viewBox="0 0 143.000000 143.000000"
 preserveAspectRatio="xMidYMid meet">
<metadata>
Created by potrace 1.14, written by Peter Selinger 2001-2017
</metadata>
<g transform="translate(0.000000,143.000000) scale(0.100000,-0.100000)"
fill="#000000" stroke="none">
<path d="M359 974 c-1 -8 -2 -17 -3 -21 -1 -5 -6 -35 -10 -68 -4 -32 -9 -66
-11 -75 -3 -15 -14 -91 -21 -145 -2 -16 -9 -61 -15 -99 -13 -79 -11 -81 56
-85 41 -2 45 0 44 21 -1 13 1 43 5 68 4 25 9 56 11 70 2 14 7 52 11 84 3 33 8
67 9 75 2 9 4 27 5 41 1 14 13 -36 26 -110 49 -277 40 -255 95 -255 l44 0 48
120 c27 66 57 143 68 170 l19 50 -3 -182 -3 -183 31 -2 c77 -4 202 6 251 21
113 33 175 130 170 265 -4 103 -37 158 -121 201 -54 28 -67 30 -169 31 -179 2
-183 1 -211 -62 -13 -30 -41 -100 -61 -156 -38 -106 -54 -135 -52 -102 1 18
-7 72 -16 119 -3 11 -12 59 -22 107 -9 47 -20 91 -23 96 -3 5 -39 12 -78 15
-58 4 -73 2 -74 -9z m649 -121 c59 -43 77 -149 39 -224 -32 -62 -64 -81 -134
-83 l-58 -1 0 150 c0 83 1 158 4 169 3 16 12 18 63 14 37 -3 68 -11 86 -25z"/>
</g>
</svg>
